<svg width="320" height="14" viewBox="0 0 320 14" fill="none" xmlns="http://www.w3.org/2000/svg">
<path d="M0,1c8.004,0 8.004,10 15.989,10c8.004,0 8.004,-10 15.988,-10c8.004,0 8.004,10 16.008,10c8.004,0 8.004,-10 16.008,-10c8.003,0 8.003,10 16.007,10c8.004,0 8.004,-10 16.008,-10c8.003,0 8.003,10 15.988,10c8.004,0 8.004,-10 15.989,-10c8.004,0 8.004,10 15.989,10c8.004,0 8.004,-10 16.007,-10c8.004,0 8.004,10 16.008,10c8.003,0 8.003,-10 16.007,-10c8.004,0 8.004,10 16.008,10c8.004,0 8.004,-10 16.007,-10c8.004,0 8.004,10 16.008,10c8.004,0 8.004,-10 16.008,-10c8.003,0 8.003,10 15.988,10c8.004,0 8.004,-10 15.989,-10c8.004,0 8.004,10 15.989,10c8.004,0 8.004,-10 16.007,-10" stroke="#A1A6B4" stroke-miterlimit="10" stroke-linecap="square"/>
</svg>