<svg width="1010" height="112" viewBox="0 0 1010 112" fill="none" xmlns="http://www.w3.org/2000/svg">
<path opacity="0.5" d="M1006,71.493c-0,-38.932 -9.793,-70.493 -22.718,-70.493c-12.926,0 -23.108,31.561 -23.108,70.493c-0,21.819 4.408,39.507 9.846,39.507c5.438,-0 9.847,-17.688 9.847,-39.507c-0,-38.932 -9.792,-70.493 -22.718,-70.493c-12.925,0 -23.108,31.561 -23.108,70.493c0,21.819 4.409,39.507 9.847,39.507c5.438,-0 9.846,-17.688 9.846,-39.507c0,-38.932 -9.792,-70.493 -22.717,-70.493c-12.926,0 -23.108,31.561 -23.108,70.493c-0,21.819 4.408,39.507 9.846,39.507c5.438,-0 9.847,-17.688 9.847,-39.507c-0,-38.932 -9.793,-70.493 -22.718,-70.493c-12.925,0 -23.108,31.561 -23.108,70.493c-0,21.819 4.409,39.507 9.847,39.507c5.438,-0 9.846,-17.688 9.846,-39.507c0,-38.932 -9.792,-70.493 -22.717,-70.493c-12.926,0 -23.109,31.561 -23.109,70.493c0,21.819 4.409,39.507 9.847,39.507c5.438,-0 9.847,-17.688 9.847,-39.507c-0,-38.932 -9.793,-70.493 -22.718,-70.493c-12.925,0 -23.108,31.561 -23.108,70.493c-0,21.819 4.408,39.507 9.847,39.507c5.438,-0 9.846,-17.688 9.846,-39.507c0,-38.932 -9.792,-70.493 -22.717,-70.493c-12.926,0 -23.109,31.561 -23.109,70.493c0,21.819 4.409,39.507 9.847,39.507c5.438,-0 9.847,-17.688 9.847,-39.507c-0,-38.932 -9.793,-70.493 -22.718,-70.493c-12.925,0 -23.108,31.561 -23.108,70.493c-0,21.819 4.408,39.507 9.846,39.507c5.439,-0 9.847,-17.688 9.847,-39.507c0,-38.932 -9.792,-70.493 -22.718,-70.493c-12.925,0 -23.108,31.561 -23.108,70.493c0,21.819 4.409,39.507 9.847,39.507c5.438,-0 9.847,-17.688 9.847,-39.507c-0,-38.932 -9.793,-70.493 -22.718,-70.493c-12.926,0 -23.108,31.561 -23.108,70.493c-0,21.819 4.408,39.507 9.846,39.507c5.439,-0 9.847,-17.688 9.847,-39.507c0,-38.932 -9.792,-70.493 -22.718,-70.493c-12.925,0 -23.108,31.561 -23.108,70.493c0,21.819 4.409,39.507 9.847,39.507c5.438,-0 9.847,-17.688 9.847,-39.507c-0,-38.932 -9.793,-70.493 -22.718,-70.493c-12.926,0 -23.108,31.561 -23.108,70.493c-0,21.819 4.408,39.507 9.846,39.507c5.438,-0 9.847,-17.688 9.847,-39.507c-0,-38.932 -9.792,-70.493 -22.718,-70.493c-12.925,0 -23.108,31.561 -23.108,70.493c0,21.819 4.409,39.507 9.847,39.507c5.438,-0 9.846,-17.688 9.846,-39.507c0,-38.932 -9.792,-70.493 -22.717,-70.493c-12.926,0 -23.109,31.561 -23.109,70.493c0,21.819 4.409,39.507 9.847,39.507c5.438,-0 9.847,-17.688 9.847,-39.507c-0,-38.932 -9.793,-70.493 -22.718,-70.493c-12.925,0 -23.108,31.561 -23.108,70.493c-0,21.819 4.409,39.507 9.847,39.507c5.438,-0 9.846,-17.688 9.846,-39.507c0,-38.932 -9.792,-70.493 -22.717,-70.493c-12.926,0 -23.109,31.561 -23.109,70.493c0,21.819 4.409,39.507 9.847,39.507c5.438,-0 9.847,-17.688 9.847,-39.507c-0,-38.932 -9.793,-70.493 -22.718,-70.493c-12.925,0 -23.108,31.561 -23.108,70.493c-0,21.819 4.408,39.507 9.847,39.507c5.438,-0 9.846,-17.688 9.846,-39.507c0,-38.932 -9.792,-70.493 -22.718,-70.493c-12.925,0 -23.108,31.561 -23.108,70.493c0,21.819 4.409,39.507 9.847,39.507c5.438,-0 9.847,-17.688 9.847,-39.507c-0,-38.932 -9.793,-70.493 -22.718,-70.493c-12.925,0 -23.108,31.561 -23.108,70.493c-0,21.819 4.408,39.507 9.846,39.507c5.439,-0 9.847,-17.688 9.847,-39.507c0,-38.932 -9.792,-70.493 -22.718,-70.493c-12.925,0 -23.108,31.561 -23.108,70.493c0,21.819 4.409,39.507 9.847,39.507c5.438,-0 9.847,-17.688 9.847,-39.507c-0,-38.932 -9.793,-70.493 -22.718,-70.493c-12.926,0 -23.108,31.561 -23.108,70.493c-0,21.819 4.408,39.507 9.846,39.507c5.439,-0 9.847,-17.688 9.847,-39.507c0,-38.932 -9.792,-70.493 -22.718,-70.493c-12.925,0 -23.108,31.561 -23.108,70.493c0,21.819 4.409,39.507 9.847,39.507c5.438,-0 9.846,-17.688 9.846,-39.507c0,-38.932 -9.792,-70.493 -22.717,-70.493c-12.926,0 -23.108,31.561 -23.108,70.493c-0,21.819 4.408,39.507 9.846,39.507c5.438,-0 9.847,-17.688 9.847,-39.507c-0,-38.932 -9.793,-70.493 -22.718,-70.493c-12.925,0 -23.108,31.561 -23.108,70.493c-0,21.819 4.409,39.507 9.847,39.507c5.438,0 9.846,-17.688 9.846,-39.507c0,-38.932 -9.792,-70.493 -22.717,-70.493c-12.926,0 -23.109,31.561 -23.109,70.493c0,21.819 4.409,39.507 9.847,39.507c5.438,0 9.847,-17.688 9.847,-39.507c-0,-38.932 -9.793,-70.493 -22.718,-70.493c-12.925,0 -23.108,31.561 -23.108,70.493c-0,21.819 4.408,39.507 9.847,39.507c5.438,0 9.846,-17.688 9.846,-39.507c0,-38.932 -9.792,-70.493 -22.717,-70.493c-12.926,0 -23.109,31.561 -23.109,70.493c0,21.819 4.409,39.507 9.847,39.507c5.438,0 9.847,-17.688 9.847,-39.507c-0,-38.932 -9.793,-70.493 -22.718,-70.493c-12.925,0 -23.108,31.561 -23.108,70.493c-0,21.819 4.408,39.507 9.846,39.507c5.439,0 9.847,-17.688 9.847,-39.507c0,-38.932 -9.792,-70.493 -22.718,-70.493c-12.925,0 -23.108,31.561 -23.108,70.493c0,21.819 4.409,39.507 9.847,39.507c5.438,0 9.847,-17.688 9.847,-39.507c-0,-38.932 -9.793,-70.493 -22.718,-70.493c-12.926,0 -23.108,31.561 -23.108,70.493c-0,21.819 4.408,39.507 9.846,39.507c5.439,0 9.847,-17.688 9.847,-39.507c0,-38.932 -9.792,-70.493 -22.718,-70.493c-12.925,0 -23.108,31.561 -23.108,70.493c0,21.819 4.409,39.507 9.847,39.507c5.438,0 9.847,-17.688 9.847,-39.507c-0,-37.692 -9.762,-68.475 -22.042,-70.398c-0.253,-0.039 -1.317,-0.095 -1.317,-0.095c-12.925,0 -22.467,31.561 -22.467,70.493c-0,21.819 4.408,39.507 9.846,39.507c5.438,0 9.847,-17.688 9.847,-39.507c-0,-37.09 -9.427,-67.228 -21.427,-69.998c-0.596,-0.137 -1.199,-0.207 -1.807,-0.207c0,-0 -0.751,0.027 -1.124,0.08c-2.246,0.321 -4.413,1.597 -6.455,3.698c-9.174,9.437 -15.835,35.518 -15.835,66.427c0,21.819 4.409,39.507 9.847,39.507c5.439,0 9.847,-17.688 9.847,-39.507c0,-28.453 -5.597,-52.969 -13.655,-64.105c-2.968,-4.101 -6.269,-6.388 -9.749,-6.388c-12.925,0 -23.404,31.561 -23.404,70.493c0,21.819 4.409,39.507 9.848,39.507c5.438,0 9.846,-17.688 9.846,-39.507c-0,-38.932 -10.414,-70.493 -23.261,-70.493c-12.847,0 -23.261,31.561 -23.261,70.493c0,21.819 4.408,39.507 9.847,39.507c5.438,0 9.847,-17.688 9.847,-39.507c-0,-38.932 -10.415,-70.493 -23.262,-70.493c-12.846,0 -23.26,31.561 -23.26,70.493c-0,21.819 4.408,39.507 9.846,39.507c5.438,0 9.847,-17.688 9.847,-39.507c-0,-38.932 -10.415,-70.493 -23.261,-70.493c-12.846,0 -23.261,31.561 -23.261,70.493c-0,21.819 4.409,39.507 9.847,39.507c5.437,0 9.846,-17.688 9.846,-39.507c0,-38.932 -10.478,-70.493 -23.403,-70.493c-12.925,-0 -23.404,31.561 -23.404,70.493" stroke="#A1A6B4" stroke-linecap="round"/>
</svg>