<svg width="40" height="40" viewBox="0 0 40 40" fill="none" xmlns="http://www.w3.org/2000/svg">
<rect x="3" y="3" width="33.33" height="33.33" rx="2" fill="#A1A6B4"/>
<path d="M23.9408 14.9923C23.1522 14.2694 21.7691 13.4043 19.7188 13.4043C16.8314 13.4043 14.3807 15.2649 13.4949 17.8364C13.2766 18.5001 13.1432 19.2111 13.1432 19.9459C13.1432 20.6806 13.2766 21.3917 13.5071 22.0553C14.3807 24.6269 16.8314 26.4874 19.7188 26.4874C21.3445 26.4874 22.582 26.0489 23.5041 25.4208C24.96 24.4254 25.6151 22.9441 25.7364 21.9605H19.7188V18.0024H29.9706C30.1282 18.666 30.2011 19.3059 30.2011 20.1829C30.2011 23.4299 29.0121 26.1675 26.9496 28.028C25.1419 29.6634 22.6669 30.6115 19.7188 30.6115C15.4482 30.6115 11.76 28.2176 9.96447 24.7335C9.22444 23.2877 8.7998 21.6642 8.7998 19.9459C8.7998 18.2275 9.22444 16.604 9.96447 15.1582C11.76 11.6741 15.4482 9.28027 19.7188 9.28027C22.6669 9.28027 25.1298 10.335 27.0224 12.0533L23.9408 14.9923Z" fill="#121723"/>
</svg>
