<svg width="40" height="40" viewBox="0 0 40 40" fill="none" xmlns="http://www.w3.org/2000/svg">
<rect x="3" y="3" width="33.33" height="33.33" rx="2" fill="#A1A6B4"/>
<path d="M20.7483 26.332H19.3849C19.3849 26.332 16.3767 26.5131 13.7272 23.7545C10.8379 20.7461 8.28638 14.7765 8.28638 14.7765C8.28638 14.7765 8.13924 14.3853 8.29915 14.1959C8.47889 13.9831 8.96808 13.9695 8.96808 13.9695L12.2273 13.9482C12.2273 13.9482 12.5344 13.9994 12.7542 14.1608C12.9354 14.294 13.0368 14.543 13.0368 14.543C13.0368 14.543 13.5637 15.8752 14.2612 17.0804C15.6228 19.4331 16.257 19.9477 16.7193 19.6957C17.3929 19.3283 17.1909 16.3698 17.1909 16.3698C17.1909 16.3698 17.2032 15.296 16.8517 14.8177C16.5795 14.4475 16.0663 14.3391 15.8395 14.3089C15.6561 14.2844 15.9571 13.8587 16.3473 13.6676C16.9338 13.3803 17.9694 13.3641 19.1933 13.3765C20.1468 13.3863 20.4214 13.4458 20.7942 13.5357C21.6592 13.7446 21.6322 14.4138 21.574 15.8578L21.574 15.8579C21.5567 16.2893 21.5365 16.7899 21.5365 17.3681C21.5365 17.4983 21.5327 17.6371 21.5288 17.7798V17.7799C21.5085 18.5193 21.4853 19.3656 21.9722 19.6802C22.2218 19.8415 22.8326 19.7042 24.3598 17.111C25.0835 15.8819 25.6266 14.4368 25.6266 14.4368C25.6266 14.4368 25.7448 14.1791 25.9292 14.0688C26.1176 13.9561 26.3721 13.9907 26.3721 13.9907L29.8018 13.9695C29.8018 13.9695 30.8325 13.8466 30.9992 14.3118C31.1742 14.8001 30.6141 15.9402 29.213 17.8077C27.8822 19.5813 27.2355 20.2332 27.2963 20.8106C27.3396 21.2221 27.7424 21.5959 28.5132 22.311L28.5663 22.3603C30.2544 23.9272 30.7046 24.7501 30.8116 24.9456C30.8202 24.9615 30.8266 24.9732 30.8313 24.9809C31.5869 26.2337 29.9934 26.332 29.9934 26.332L26.9473 26.3746C26.9473 26.3746 26.2926 26.5041 25.4312 25.9125C24.9808 25.6033 24.5405 25.0985 24.1209 24.6174L24.1209 24.6174C23.4793 23.8818 22.8863 23.2019 22.3801 23.3624C21.5312 23.6319 21.5579 25.4613 21.5579 25.4613C21.5579 25.4613 21.564 25.852 21.3705 26.0601C21.16 26.2866 20.7483 26.332 20.7483 26.332Z" fill="#121723"/>
</svg>
