<svg width="34" height="34" viewBox="0 0 34 34" fill="none" xmlns="http://www.w3.org/2000/svg">
<path d="M23.2997 33.6667V20.7667H27.62L28.2663 15.7519H23.2997V12.5519C23.2997 11.1 23.7034 10.1093 25.7849 10.1093H28.4404V5.62408C27.1549 5.48769 25.8628 5.42154 24.57 5.42594C20.7423 5.42594 18.1219 7.76297 18.1219 12.0556V15.7519H13.7923V20.7667H18.1219V33.6667H2.18486C1.69372 33.6667 1.22269 33.4716 0.875403 33.1243C0.528113 32.777 0.333008 32.306 0.333008 31.8148V2.1852C0.333008 1.69405 0.528113 1.22303 0.875403 0.875738C1.22269 0.528449 1.69372 0.333344 2.18486 0.333344H31.8145C32.3056 0.333344 32.7767 0.528449 33.124 0.875738C33.4712 1.22303 33.6663 1.69405 33.6663 2.1852V31.8148C33.6663 32.306 33.4712 32.777 33.124 33.1243C32.7767 33.4716 32.3056 33.6667 31.8145 33.6667H23.2997Z" fill="#A1A6B4"/>
</svg>
